<?xml version="1.0" encoding="utf-8"?>
<!-- Generator: Adobe Illustrator 27.5.0, SVG Export Plug-In . SVG Version: 6.00 Build 0)  -->
<svg version="1.1" xmlns="http://www.w3.org/2000/svg" xmlns:xlink="http://www.w3.org/1999/xlink" x="0px" y="0px"
	 viewBox="0 0 500 500" style="enable-background:new 0 0 500 500;" xml:space="preserve">
<g id="BACKGROUND">
</g>
<g id="OBJECTS">
	<g>
		<path style="fill:#FCF2DC;" d="M350.116,500c-1.258-31.443,17.732-59.042,43.651-80.062c21.055-17.076,48.54-31.706,54.793-56.634
			c9.053-36.091-32.479-69.588-27.546-106.324c4.193-31.223,39.369-50.665,55.561-78.51c10.594-18.219,12.575-40.365,5.355-59.884
			c-7.892-21.337-25.583-38.302-39.631-56.878C428.251,43.132,421.756,21.265,429.884,0H46.407
			C26.682,15.257,15.072,38.72,15.642,62.171c0.57,23.451,13.308,46.431,33.755,60.892c16.67,11.79,37.343,17.73,56.385,26.091
			c7.586,3.331,15.217,7.277,20.055,13.518c10.842,13.984,3.714,33.595-7.141,47.571c-10.854,13.976-25.411,26.381-30.322,42.867
			c-5.292,17.762,1.961,36.905,13.567,52.02c11.606,15.115,27.271,27.226,41.439,40.439c6.941,6.474,13.687,13.44,17.267,21.852
			c4.021,9.446,3.71,19.955,2.023,29.961c-3.604,21.377-13.326,41.889-27.964,59c-5.395,6.306-11.574,12.366-14.365,19.927
			c-2.79,7.561,8.967,19.798,16.666,23.692H350.116z"/>
		<g>
			<g>
				<g>
					<path style="fill:#B3D8F9;" d="M213.814,298.515c-1.094-1.542-2.201-3.109-2.832-4.891c-0.631-1.782-0.733-3.839,0.158-5.506
						c1.061-1.984,3.428-3.316,3.667-5.553c0.221-2.062-1.476-3.749-2.665-5.449c-1.175-1.679-1.943-3.689-1.908-5.738
						s0.939-4.122,2.585-5.341c1.497-1.109,3.648-1.64,4.309-3.382c0.574-1.512-0.3-3.145-0.561-4.741
						c-0.333-2.041,0.511-4.322,2.297-5.364c0.835-0.487,1.803-0.685,2.698-1.051c1.807-0.738,3.309-2.194,4.101-3.977
						c1.062-2.388,0.837-5.117,0.827-7.731c-0.018-4.436,0.776-9.164,3.773-12.434c2.061-2.249,4.976-3.572,7.956-4.229
						c0.831-3.195,3.389-5.824,6.336-7.311c2.947-1.488,6.243-2.109,9.488-2.715c3.811-0.711,7.693-1.425,11.542-0.963
						c4.233,0.508,8.153,2.404,12.201,3.741c5.812,1.919,12.645,3.166,15.854,8.379c3.264,5.302,1.274,12.599,4.405,17.98
						c2.703,4.645,8.793,7.053,10.206,12.239c1.646,6.038-4.071,12.391-2.136,18.343c0.79,2.43,2.727,4.274,4.393,6.212
						c1.666,1.937,3.189,4.328,2.862,6.863c-0.511,3.958-5.275,6.497-5.368,10.488c-0.086,3.718,4.017,6.723,3.474,10.402
						c-0.198,1.341-1.014,2.522-1.994,3.459c-1.479,1.415-3.382,2.382-5.397,2.742c-5.871,1.051-11.139,3.387-17.044,4.223
						c-4.151,0.587-8.343,0.845-12.535,0.931c-10.753,0.222-21.607-0.695-31.914-3.77
						C232.288,311.297,220.038,307.287,213.814,298.515z"/>
					<g>
						
							<path style="fill:none;stroke:#1D1D1B;stroke-width:0.5;stroke-linecap:round;stroke-linejoin:round;stroke-miterlimit:10;" d="
							M243.969,239.089c0,0-3.612-8.948,3.971-10.97"/>
						
							<path style="fill:none;stroke:#1D1D1B;stroke-width:0.5;stroke-linecap:round;stroke-linejoin:round;stroke-miterlimit:10;" d="
							M238.838,247.632c-0.906,1.962-3.709,1.868-5.57,2.967c-2.372,1.402-2.918,4.748-2.037,7.358
							c0.358,1.062,0.911,2.108,0.846,3.226c-0.084,1.457-1.19,2.64-2.334,3.547c-1.143,0.907-2.43,1.726-3.152,2.994
							c-0.722,1.268-0.596,3.18,0.697,3.856"/>
						
							<path style="fill:none;stroke:#1D1D1B;stroke-width:0.5;stroke-linecap:round;stroke-linejoin:round;stroke-miterlimit:10;" d="
							M279.136,251.767c1.389,1.791,3.566,2.949,5.828,3.099c0.92,0.061,1.854-0.035,2.758,0.15c2.12,0.434,3.743,2.585,3.579,4.742
							c-0.095,1.247-0.706,2.423-0.717,3.674c-0.021,2.25,2.278,4.223,4.498,3.861"/>
						
							<path style="fill:none;stroke:#1D1D1B;stroke-width:0.5;stroke-linecap:round;stroke-linejoin:round;stroke-miterlimit:10;" d="
							M299.188,277.753c0.333,0.913,0.119,1.937-0.246,2.837c-0.365,0.901-0.876,1.742-1.163,2.67
							c-0.544,1.755-0.235,3.686,0.481,5.379c0.716,1.692,1.815,3.19,2.904,4.671"/>
						
							<path style="fill:none;stroke:#1D1D1B;stroke-width:0.5;stroke-linecap:round;stroke-linejoin:round;stroke-miterlimit:10;" d="
							M236.783,278.926c0.104,1.621,1.552,2.772,2.432,4.137c1.266,1.965,1.327,4.643,0.15,6.663
							c-0.998,1.714-2.753,2.898-3.7,4.641c-0.878,1.616-0.965,3.599-0.417,5.355c0.547,1.756,1.689,3.29,3.086,4.486"/>
						
							<path style="fill:none;stroke:#1D1D1B;stroke-width:0.5;stroke-linecap:round;stroke-linejoin:round;stroke-miterlimit:10;" d="
							M284.821,226.701c2.777,0.84,5.087,3.092,5.999,5.846c0.98,2.962,0.452,6.433,2.188,9.025
							c0.926,1.383,2.456,2.345,4.103,2.582"/>
					</g>
				</g>
				<path style="fill:#FBFAFD;" d="M275.192,289.287c0,0,5.989-1.257,8.137,1.143c2.149,2.4,3.665,4.548,3.665,4.548
					s27.047,7.457,30.46,11.754c3.413,4.297,12.386,35.389,14.661,48.281c2.275,12.892,3.539,30.081,2.022,34.378
					c-1.517,4.297-18.579,3.918-18.579,3.918s1.39,2.149-0.379,4.676c-1.77,2.528-6.464,4.424-10.184,4.676
					c-3.719,0.253-34.938-0.632-46.186,0c-11.249,0.632-24.267,2.275-27.3,1.643c-3.033-0.632-8.594-3.918-9.1-5.94
					c-0.505-2.022,0-13.65,0-13.65s2.528-70.652,5.182-74.57c2.654-3.918,13.271-8.721,13.271-8.721s2.781-7.204,7.457-8.468
					C252.996,291.692,275.192,289.287,275.192,289.287z"/>
				<rect x="185.757" y="301.298" style="fill:#FFC577;" width="63.321" height="89.357"/>
				<polygon style="fill:#1D1D1B;" points="222.345,295.99 222.345,293.683 212.489,293.683 212.489,295.99 205.157,295.99 
					205.157,305.216 229.677,305.216 229.677,295.99 				"/>
				<g>
					<path style="fill:#FFBDCD;" d="M288.132,384.589c0,0,4.297-8.089-0.885-14.788h-5.056c0,0-5.94-6.446-7.71-7.204
						c-1.77-0.758-6.825-3.665-9.1-6.572c-2.275-2.907-4.929-4.044-6.319-0.885c-1.39,3.16,5.056,9.353,5.056,9.353
						s-7.963,0.126-11.754,0.632c-3.792,0.505-7.583,1.518-7.583,3.792c0,2.274,16.178,1.895,16.178,1.895l0.126,1.264
						c0,0-13.144,2.022-16.304,2.907c-3.16,0.885-2.275,3.033-1.896,3.792c0.379,0.758,4.55,0.758,4.55,0.758
						s-2.781,1.643-2.528,3.412c0.253,1.769,9.353,0.506,9.353,0.506s-2.275,0.885-2.275,1.896c0,1.011,0.253,2.275,2.149,2.149
						c1.896-0.126,15.167-2.401,15.167-2.401s8.342,1.39,13.271-1.011L288.132,384.589z"/>
					
						<line style="fill:none;stroke:#1D1D1B;stroke-width:0.5;stroke-linecap:round;stroke-linejoin:round;stroke-miterlimit:10;" x1="247.435" y1="379.533" x2="262.97" y2="376.373"/>
					
						<line style="fill:none;stroke:#1D1D1B;stroke-width:0.5;stroke-linecap:round;stroke-linejoin:round;stroke-miterlimit:10;" x1="254.26" y1="383.451" x2="265.003" y2="380.797"/>
					
						<polygon style="fill:#1D1D1B;stroke:#1D1D1B;stroke-width:0.5;stroke-linecap:round;stroke-linejoin:round;stroke-miterlimit:10;" points="
						282.192,369.801 283.456,371.697 284.467,369.801 					"/>
					
						<line style="fill:none;stroke:#1D1D1B;stroke-width:0.5;stroke-linecap:round;stroke-linejoin:round;stroke-miterlimit:10;" x1="264.118" y1="364.493" x2="267.91" y2="364.493"/>
				</g>
				<g>
					
						<path style="fill:none;stroke:#1D1D1B;stroke-width:0.5;stroke-linecap:round;stroke-linejoin:round;stroke-miterlimit:10;" d="
						M250.468,294.22c0,0,2.459,1.389,3.792,1.769"/>
					
						<path style="fill:none;stroke:#1D1D1B;stroke-width:0.5;stroke-linecap:round;stroke-linejoin:round;stroke-miterlimit:10;" d="
						M275.367,292.956c0,0,2.253-1.194,1.643-2.526"/>
					
						<path style="fill:none;stroke:#1D1D1B;stroke-width:0.5;stroke-linecap:round;stroke-linejoin:round;stroke-miterlimit:10;" d="
						M286.468,384.437c0,0,0.147,1.921,2.043,2.426c1.896,0.506,27.047,6.446,27.047,6.446"/>
					
						<path style="fill:none;stroke:#1D1D1B;stroke-width:0.5;stroke-linecap:round;stroke-linejoin:round;stroke-miterlimit:10;" d="
						M285.604,369.801c0,0,0.885-1.264,3.033-1.137s25.783,1.711,25.783,1.711"/>
					
						<path style="fill:none;stroke:#1D1D1B;stroke-width:0.5;stroke-linecap:round;stroke-linejoin:round;stroke-miterlimit:10;" d="
						M309.996,370.078c0,0-7.329-37.309-7.076-44.008c0.253-6.699,1.769-14.535,5.182-16.683"/>
					
						<path style="fill:none;stroke:#1D1D1B;stroke-width:0.5;stroke-linecap:round;stroke-linejoin:round;stroke-miterlimit:10;" d="
						M303.678,369.801c0,0,3.16,0.126,3.792,4.803c0.632,4.676-0.379,11.14-1.517,12.9c-1.138,1.761-3.971,2.591-4.94,2.361"/>
					
						<path style="fill:none;stroke:#1D1D1B;stroke-width:0.5;stroke-linecap:round;stroke-linejoin:round;stroke-miterlimit:10;" d="
						M251.479,307.87c0,0,14.706,7.718,29.575-1.264"/>
				</g>
				<g>
					<g>
						<path style="fill:#1D1D1B;" d="M299.002,414.417c4.183-0.178,8.108-0.796,10.466-1.586c-0.065-0.2-0.102-0.31-0.102-0.31
							l-0.896-10.461c0,0-31.46-2.052-36.768-2.052c-5.308,0-39.181,2.052-39.181,2.052l-0.364,10.639
							c1.462,1.155,4.432,2.409,10.446,2.476C253.881,415.301,293.061,414.669,299.002,414.417z"/>
						<rect x="255.329" y="404.448" style="fill:#FFC577;" width="19.912" height="8.452"/>
					</g>
					<g>
						<path style="fill:#68C5C3;" d="M218.871,500.116h103.513c0,0-0.885-18.966-3.033-41.464
							c-2.006-21.005-8.968-42.885-9.883-45.696c-2.358,0.791-6.283,1.408-10.466,1.586c-5.94,0.253-45.121,0.885-56.399,0.758
							c-6.014-0.067-8.983-1.321-10.446-2.476l-0.016,0.454C229.867,425.792,218.871,500.116,218.871,500.116z"/>
						<g>
							
								<polyline style="fill:none;stroke:#1D1D1B;stroke-width:0.5;stroke-linecap:round;stroke-linejoin:round;stroke-miterlimit:10;" points="
								247.814,447.783 266.267,458.4 270.812,500.116 							"/>
							
								<line style="fill:none;stroke:#1D1D1B;stroke-width:0.5;stroke-linecap:round;stroke-linejoin:round;stroke-miterlimit:10;" x1="260.706" y1="415.219" x2="260.706" y2="455.201"/>
							
								<line style="fill:none;stroke:#1D1D1B;stroke-width:0.5;stroke-linecap:round;stroke-linejoin:round;stroke-miterlimit:10;" x1="265.887" y1="415.158" x2="265.285" y2="457.835"/>
							
								<path style="fill:none;stroke:#1D1D1B;stroke-width:0.5;stroke-linecap:round;stroke-linejoin:round;stroke-miterlimit:10;" d="
								M300.555,414.456c0,0-3.976,20.941,0.584,28.398c4.56,7.457,16.782,4.929,16.782,4.929"/>
						</g>
					</g>
				</g>
				<g>
					<path style="fill:#FFBDCD;" d="M185.761,346.703c0,0-4.676-6.224-4.171-9.258c0,0-2.907-5.056-2.275-6.699
						c0.632-1.643,1.643-2.528,1.643-2.528s-1.011-2.528,0.758-4.55c1.769-2.022,3.792-4.55,6.193-4.929
						c2.401-0.379,9.227-0.253,10.238,1.011c1.011,1.264-0.253,3.286-1.39,3.539c-1.138,0.253-6.067,0.885-6.067,0.885
						s9.479,1.39,10.743,1.896c1.264,0.506,1.896,1.643,1.264,2.781c-0.632,1.138-2.907,2.149-2.907,2.149s0.253,2.022-2.781,2.401
						c0,0,0.758,2.401-1.39,3.16c-2.149,0.758-9.732,4.424-9.732,4.424L185.761,346.703z"/>
					<g>
						
							<path style="fill:none;stroke:#1D1D1B;stroke-width:0.5;stroke-linecap:round;stroke-linejoin:round;stroke-miterlimit:10;" d="
							M197.01,333.401c0,0-2.781-0.126-5.056,0.632c-2.275,0.758-5.688,2.275-5.688,2.275"/>
						
							<path style="fill:none;stroke:#1D1D1B;stroke-width:0.5;stroke-linecap:round;stroke-linejoin:round;stroke-miterlimit:10;" d="
							M184.371,331.379l4.676-1.896c0,0,7.963-0.126,8.847,0c0.885,0.126,1.896,1.517,1.896,1.517"/>
						
							<polyline style="fill:none;stroke:#1D1D1B;stroke-width:0.5;stroke-linecap:round;stroke-linejoin:round;stroke-miterlimit:10;" points="
							190.691,324.174 188.416,324.174 183.234,327.334 						"/>
					</g>
				</g>
				<g>
					<g>
						<path style="fill:#FFBDCD;" d="M243.969,239.089c1.454-1.507,2.797,3.167,4.876,3.412c2.079,0.244,4.163-0.262,6.216-0.668
							c1.212-0.24,2.531-0.433,3.634,0.124c1.638,0.827,2.107,2.887,3.02,4.479c1.391,2.428,4.203,3.967,6.998,3.831
							c1.388-0.068,2.738-0.513,4.127-0.569c1.389-0.057,2.944,0.4,3.605,1.623c0.842,1.559-0.136,3.45-0.135,5.222
							c0.001,1.839,1.2,3.622,2.903,4.317c0,0,1.967-4.936,5.885-0.512c3.918,4.424-1.264,13.524-6.825,12.892l-3.539,6.446
							l0.632,13.271c0,0-6.193,7.583-21.107,3.033v-6.572c0,0-14.408-7.71-14.788-27.426c0-12.386,0-14.661,0-14.661
							s2.528-0.632,3.033-2.781C243.011,242.4,242.652,240.454,243.969,239.089z"/>
						
							<path style="fill:#1D1D1B;stroke:#1D1D1B;stroke-width:0.5;stroke-linecap:round;stroke-linejoin:round;stroke-miterlimit:10;" d="
							M254.26,289.417c0,0,4.297,1.264,7.71-0.632c0,0-3.792,3.413-5.182,3.286C255.397,291.945,254.26,289.417,254.26,289.417z"/>
						
							<path style="fill:#1D1D1B;stroke:#1D1D1B;stroke-width:0.5;stroke-linecap:round;stroke-linejoin:round;stroke-miterlimit:10;" d="
							M280.043,263.76c0,0,2.401-4.803,5.056,0"/>
					</g>
					<g>
						<circle style="fill:#1D1D1B;" cx="244.893" cy="262.591" r="1.169"/>
						<g>
							<path style="fill:#1D1D1B;" d="M248.519,257.201c-0.261,0.714-1.841,0.386-3.626,0.386c-1.785,0-3.365,0.328-3.626-0.386
								c-0.261-0.714,1.306-2.472,3.626-2.472C247.213,254.729,248.78,256.487,248.519,257.201z"/>
						</g>
					</g>
					<g>
						<path style="fill:#1D1D1B;" d="M260.485,262.591c0,0.646-0.523,1.169-1.169,1.169c-0.646,0-1.169-0.523-1.169-1.169
							c0-0.646,0.523-1.169,1.169-1.169C259.962,261.422,260.485,261.946,260.485,262.591z"/>
						<g>
							<path style="fill:#1D1D1B;" d="M262.942,257.201c-0.261,0.714-1.841,0.386-3.626,0.386c-1.785,0-3.365,0.328-3.626-0.386
								c-0.261-0.714,1.306-2.472,3.626-2.472C261.636,254.729,263.203,256.487,262.942,257.201z"/>
						</g>
					</g>
					
						<polyline style="fill:none;stroke:#1D1D1B;stroke-width:0.5;stroke-linecap:round;stroke-linejoin:round;stroke-miterlimit:10;" points="
						249.865,259.59 249.078,271.849 253.628,271.849 					"/>
					
						<path style="fill:none;stroke:#1D1D1B;stroke-width:0.5;stroke-linecap:round;stroke-linejoin:round;stroke-miterlimit:10;" d="
						M254.493,276.589c0,0,3.592,0.126,4.823-3.16"/>
				</g>
			</g>
			<g>
				<polyline style="fill:#FFFFFF;" points="165.447,350.634 183.272,346.673 202.495,350.634 180.126,356.983 165.447,351.449 				
					"/>
				<g>
					<path style="fill:#FFC577;" d="M120.359,447.449V500H36.01l-3.612-29.716c0,0-5.083-16.777-5.862-24.35l60.036-18.174
						l14.447,0.583L120.359,447.449z"/>
					<g>
						
							<path style="fill:none;stroke:#1D1D1B;stroke-width:0.5;stroke-linecap:round;stroke-linejoin:round;stroke-miterlimit:10;" d="
							M97.423,428.197c0,0,3.946,39.058,3.83,43.951c-0.117,4.893,0.699,27.852,0.699,27.852"/>
						
							<path style="fill:none;stroke:#1D1D1B;stroke-width:0.5;stroke-linecap:round;stroke-linejoin:round;stroke-miterlimit:10;" d="
							M100.195,457.247c0,0,12.534-7.764,15.592-14.315"/>
						
							<path style="fill:none;stroke:#1D1D1B;stroke-width:0.5;stroke-linecap:round;stroke-linejoin:round;stroke-miterlimit:10;" d="
							M55.117,500c0,0-1.049-16.784-2.214-19.58c-1.165-2.796-10.951-13.165-10.951-13.165"/>
						
							<polyline style="fill:none;stroke:#1D1D1B;stroke-width:0.5;stroke-linecap:round;stroke-linejoin:round;stroke-miterlimit:10;" points="
							33.448,478.919 35.428,466.672 32.456,444.142 						"/>
						
							<path style="fill:none;stroke:#1D1D1B;stroke-width:0.5;stroke-linecap:round;stroke-linejoin:round;stroke-miterlimit:10;" d="
							M47.894,442.932c0,0,1.515,20.245,2.447,22.576c0.932,2.33,4.078,7.223,19.456,6.524
							c15.379-0.699,13.864-14.785,13.864-14.785l-1.398-24.594"/>
					</g>
				</g>
				<g>
					<path style="fill:#FFBDCD;" d="M123.505,343.993c0,0,2.097-5.359,3.379-6.757c1.282-1.398,9.437-6.874,10.369-6.99
						c0.932-0.117,2.097,0.699,2.097,0.699s10.984-5.243,12.948-5.476c1.964-0.233,9.42,0.487,11.168,1.001
						c1.748,0.514,5.709,2.495,5.592,3.427c-0.117,0.932-0.699,2.796-3.262,2.796s-6.874-1.398-6.874-1.398l-3.262,0.466
						c0,0,3.262,3.146,3.146,3.961c-0.117,0.816-1.165,1.864-1.165,1.864s2.563,2.214,2.33,3.029
						c-0.233,0.815-1.748,1.747-1.748,1.747s2.214,2.913,1.748,3.612c-0.466,0.699-4.194,4.66-5.476,4.66c-1.282,0-3.728,0-3.728,0
						s-2.677,3.612-4.484,3.961c-1.807,0.349-22.018-5.893-22.018-5.893L123.505,343.993z"/>
					<g>
						
							<path style="fill:none;stroke:#1D1D1B;stroke-width:0.5;stroke-linecap:round;stroke-linejoin:round;stroke-miterlimit:10;" d="
							M132.359,345.741c0,0,6.641-3.379,5.825-7.689c0,0,5.01,2.649,6.874,1.965c1.864-0.684,1.631-2.548,0.583-3.48
							c-1.049-0.932-6.291-5.592-6.291-5.592"/>
						
							<line style="fill:none;stroke:#1D1D1B;stroke-width:0.5;stroke-linecap:round;stroke-linejoin:round;stroke-miterlimit:10;" x1="155.66" y1="331.76" x2="151.35" y2="331.76"/>
						
							<path style="fill:none;stroke:#1D1D1B;stroke-width:0.5;stroke-linecap:round;stroke-linejoin:round;stroke-miterlimit:10;" d="
							M157.641,337.585c0,0-4.627,4.078-5.343,4.194c-0.716,0.117-6.604-2.097-6.604-2.097"/>
						
							<line style="fill:none;stroke:#1D1D1B;stroke-width:0.5;stroke-linecap:round;stroke-linejoin:round;stroke-miterlimit:10;" x1="148.787" y1="336.886" x2="151.35" y2="333.508"/>
						
							<path style="fill:none;stroke:#1D1D1B;stroke-width:0.5;stroke-linecap:round;stroke-linejoin:round;stroke-miterlimit:10;" d="
							M149.744,335.624c0,0-3.943-1.146-5.13,0"/>
						
							<path style="fill:none;stroke:#1D1D1B;stroke-width:0.5;stroke-linecap:round;stroke-linejoin:round;stroke-miterlimit:10;" d="
							M147.179,340.227c0,0-1.326,1.436-0.733,2.717c0.593,1.282,5.137,3.728,7.059,2.796c1.922-0.932,4.718-3.379,4.718-3.379"/>
						
							<path style="fill:none;stroke:#1D1D1B;stroke-width:0.5;stroke-linecap:round;stroke-linejoin:round;stroke-miterlimit:10;" d="
							M147.727,344.189c0,0-0.874,2.25-0.548,2.949c0.326,0.699,3.588,3.495,3.588,3.495"/>
					</g>
				</g>
				<g>
					<g>
						<path style="fill:#FFBDCD;" d="M125.293,344.995l28.737,8.551c0,0,14.214-6.99,15.029-6.99c0.816,0,6.757,5.126,6.757,5.126
							s8.505-0.117,9.553,0.699c1.048,0.816,2.097,3.728,1.864,5.01c-0.233,1.282-7.107,3.262-7.107,3.262s0.699,2.68,0.117,3.845
							c-0.582,1.165-2.913,2.097-2.913,2.097s0.117,2.796-0.583,4.194c-0.699,1.398-3.495,2.563-3.495,2.563s0.35,2.214-2.563,2.214
							s-18.874-2.563-18.874-2.563l-34.485,0.699L125.293,344.995z"/>
						
							<line style="fill:none;stroke:#1D1D1B;stroke-width:0.5;stroke-linecap:round;stroke-linejoin:round;stroke-miterlimit:10;" x1="180.126" y1="360.653" x2="175.35" y2="361.935"/>
						
							<line style="fill:none;stroke:#1D1D1B;stroke-width:0.5;stroke-linecap:round;stroke-linejoin:round;stroke-miterlimit:10;" x1="177.33" y1="366.595" x2="173.369" y2="367.547"/>
						
							<line style="fill:none;stroke:#1D1D1B;stroke-width:0.5;stroke-linecap:round;stroke-linejoin:round;stroke-miterlimit:10;" x1="173.253" y1="373.352" x2="171.388" y2="373.352"/>
						
							<line style="fill:none;stroke:#1D1D1B;stroke-width:0.5;stroke-linecap:round;stroke-linejoin:round;stroke-miterlimit:10;" x1="175.816" y1="351.682" x2="169.058" y2="351.216"/>
					</g>
					
						<line style="fill:none;stroke:#1D1D1B;stroke-width:0.5;stroke-linecap:round;stroke-linejoin:round;stroke-miterlimit:10;" x1="125.293" y1="344.995" x2="154.029" y2="353.546"/>
				</g>
				<g>
					<path style="fill:#1D1D1B;" d="M69.563,228.304c0,0-3.379-23.767-2.68-32.971c0.699-9.204,1.981-20.621,11.184-21.903
						c0,0,5.01-10.486,15.728-6.874c0,0,6.058-5.709,11.534,0.233c0,0,8.621-5.825,14.913,2.447c0,0,8.824-1.864,9.188,6.641
						c0,0,5.258,3.379,1.996,10.369c0,0,0.117,4.311-2.913,4.311c0,0-0.699,4.777-5.592,4.078l2.68,32.388
						c0,0,1.398,6.291-1.165,6.757l-6.436-0.583l4.106,4.893c0,0-1.282,11.184-2.447,12.699c-1.165,1.515-8.155,1.864-10.835,0
						c-2.68-1.864-3.495-4.777-3.495-4.777L69.563,228.304z"/>
					<path style="fill:#FFBDCD;" d="M111.039,192.537c0,0,7.34,2.563,11.883-3.845c0,0,7.456,20.854,6.408,38.33h-4.893
						c0,0-13.282,0.35-15.961-5.126c-2.68-5.476-1.748-22.835-1.748-22.835S111.738,197.314,111.039,192.537z"/>
					<path style="fill:#FFBDCD;" d="M105.33,246.013c0,0-5.476-8.039-4.893-13.864c0.583-5.825,1.631-17.238,1.981-24.289
						c0.35-7.051-0.815-8.682-4.194-8.216c-3.379,0.466-5.126,11.534-3.029,17.476c0,0-2.913,12.466-4.311,12.582
						c-1.398,0.117-21.32-1.398-21.32-1.398l-4.194,9.786l38.796,14.563L105.33,246.013z"/>
					<path style="fill:#1D1D1B;" d="M95.194,217.12c0,0,1.049,4.544,3.029,4.544c0,0-1.696,0.767-4.052-0.49L95.194,217.12z"/>
					
						<path style="fill:#1D1D1B;stroke:#1D1D1B;stroke-width:0.5;stroke-linecap:round;stroke-linejoin:round;stroke-miterlimit:10;" d="
						M96.198,211.993c0,0-0.53-6.379,2.026-9.204c2.214-2.447,2.913,3.67,2.913,3.67"/>
					<g>
						<path style="fill:#1D1D1B;" d="M122.981,212.515c0,0.595-0.482,1.078-1.078,1.078s-1.078-0.482-1.078-1.078
							s0.483-1.078,1.078-1.078S122.981,211.92,122.981,212.515z"/>
						<g>
							<path style="fill:#1D1D1B;" d="M125.883,207.62c-0.322,0.881-2.272,0.476-4.475,0.476c-2.203,0-4.153,0.405-4.475-0.476
								c-0.322-0.881,1.612-3.051,4.475-3.051C124.272,204.568,126.205,206.738,125.883,207.62z"/>
						</g>
					</g>
				</g>
				<path style="fill:#68C5C3;" d="M60.243,242.168l1.981-11.65c0,0,15.313,0.815,31.948,8.505
					c16.635,7.689,18.149,20.738,18.149,20.738l-4.194,4.311c0,0,7.223,9.087,8.039,15.612c0.816,6.524,2.68,53.476,2.68,53.476
					s7.34,8.039,7.456,18.408c0.117,10.369-8.971,24.815-8.971,24.815s3.845,60.349,3.728,62.796
					c-0.116,2.447,0.233,8.039-0.699,8.272s-18.757-17.126-24.932-17.01c-6.175,0.117-26.679,10.019-40.893,13.748
					c-14.214,3.728-27.029,3.495-30.874,0.349c-3.845-3.146,9.553-68.738,9.67-71.068c0.117-2.33-0.117-4.078-0.117-4.078
					s-13.165-6.874-13.515-23.534c-0.349-16.66,4.777-57.32,7.922-65.359c3.146-8.039,17.476-24.466,21.087-27.845
					C52.321,249.275,60.243,242.168,60.243,242.168z"/>
				<path style="fill:none;stroke:#1D1D1B;stroke-width:0.5;stroke-linecap:round;stroke-linejoin:round;stroke-miterlimit:10;" d="
					M60.243,242.168c0,0,17.825,1.631,30.524,8.621c12.699,6.99,17.359,13.281,17.359,13.281"/>
				<path style="fill:none;stroke:#1D1D1B;stroke-width:0.5;stroke-linecap:round;stroke-linejoin:round;stroke-miterlimit:10;" d="
					M69.68,285.391c0,0,17.709,73.514,18.874,76.543c1.165,3.029,13.981,10.952,22.835,0c8.854-10.951,7.806-22.95,7.806-22.95
					l-0.349-5.826"/>
				<path style="fill:none;stroke:#1D1D1B;stroke-width:0.5;stroke-linecap:round;stroke-linejoin:round;stroke-miterlimit:10;" d="
					M88.023,360.11c0,0-1.45,1.825-1.217,6.485c0.233,4.66,17.825,18.175,22.602,16.893c4.777-1.282,7.922-7.107,7.922-7.107"/>
				
					<line style="fill:none;stroke:#1D1D1B;stroke-width:0.5;stroke-linecap:round;stroke-linejoin:round;stroke-miterlimit:10;" x1="33.214" y1="369.391" x2="27.156" y2="294.246"/>
			</g>
			<g>
				<g>
					<g>
						<path style="fill:#68C5C3;" d="M396.038,220.34c0,0-3.142-3.803-0.579-7.531c0,0-0.583-7.107,2.214-12.35
							c2.796-5.243,7.689-7.107,9.32-3.728c0,0,6.641-5.243,8.854,0.583c0,0,6.757-2.563,10.602,2.447c0,0,5.709-0.117,11.185,3.495
							c5.476,3.612,10.369,6.641,10.835,14.214c0,0,1.631,3.379,0.815,8.854c-0.815,5.476-6.99,26.67-6.99,26.67l-14.796,2.573
							l-24.583-33.437L396.038,220.34z"/>
					</g>
					<path style="fill:#1D1D1B;" d="M486.216,424.964c0,0-0.233,32.738-0.932,40.194c-0.699,7.456-2.447,34.842-2.447,34.842
						h-80.621l5.709-79.114l63.728-10.369L486.216,424.964z"/>
					<g>
						<path style="fill:#B3D8F9;" d="M447.994,262.911c0,0,6.882-0.927,7.814,0c0.932,0.927,4.66,8.034,5.243,8.733
							c0.582,0.699,0,2.097,0,2.097s15.146,9.087,17.126,12.816c1.981,3.728,12.932,56.854,12.583,57.786
							c-0.35,0.932-6.99,2.214-6.99,2.214s1.281,55.107,1.398,58.602c0.117,3.495,1.049,19.806,1.049,19.806
							s-10.485-3.961-17.476-7.922c0,0-25.747,7.34-37.398,6.524c-11.65-0.816-23.417-2.68-23.417-2.68s-0.699-62.563-0.815-70.485
							c0,0-11.883-1.631-14.563-3.495c0,0,6.641-44.388,8.738-48.233c2.097-3.845,10.369-12.233,10.369-12.233l0.233-3.728
							l7.414-6.923L447.994,262.911z"/>
						<g>
							
								<line style="fill:none;stroke:#1D1D1B;stroke-width:0.5;stroke-linecap:round;stroke-linejoin:round;stroke-miterlimit:10;" x1="416.896" y1="293.314" x2="411.886" y2="282.712"/>
							
								<polyline style="fill:none;stroke:#1D1D1B;stroke-width:0.5;stroke-linecap:round;stroke-linejoin:round;stroke-miterlimit:10;" points="
								411.653,286.44 411.653,295.411 415.767,290.925 							"/>
							
								<polyline style="fill:none;stroke:#1D1D1B;stroke-width:0.5;stroke-linecap:round;stroke-linejoin:round;stroke-miterlimit:10;" points="
								428.896,278.75 436.702,293.314 461.051,273.741 							"/>
							
								<line style="fill:none;stroke:#1D1D1B;stroke-width:0.5;stroke-linecap:round;stroke-linejoin:round;stroke-miterlimit:10;" x1="422.954" y1="297.974" x2="422.954" y2="302.867"/>
							
								<path style="fill:none;stroke:#1D1D1B;stroke-width:0.5;stroke-linecap:round;stroke-linejoin:round;stroke-miterlimit:10;" d="
								M407.109,350.401c0,0,1.165-33.553,1.631-40.078"/>
							
								<path style="fill:none;stroke:#1D1D1B;stroke-width:0.5;stroke-linecap:round;stroke-linejoin:round;stroke-miterlimit:10;" d="
								M483.77,346.556l-33.087,1.981c0,0-3.961-26.796-1.748-37.282"/>
							
								<path style="fill:none;stroke:#1D1D1B;stroke-width:0.5;stroke-linecap:round;stroke-linejoin:round;stroke-miterlimit:10;" d="
								M451.847,305.081c0,0,8.039-16.544,21.903-17.068"/>
							
								<path style="fill:none;stroke:#1D1D1B;stroke-width:0.5;stroke-linecap:round;stroke-linejoin:round;stroke-miterlimit:10;" d="
								M423.537,307.877c0,0.772-0.313,1.398-0.699,1.398c-0.386,0-0.699-0.626-0.699-1.398c0-0.772,0.313-1.398,0.699-1.398
								C423.224,306.478,423.537,307.104,423.537,307.877z"/>
							
								<path style="fill:none;stroke:#1D1D1B;stroke-width:0.5;stroke-linecap:round;stroke-linejoin:round;stroke-miterlimit:10;" d="
								M423.537,322.323c0,0.772-0.313,1.398-0.699,1.398c-0.386,0-0.699-0.626-0.699-1.398c0-0.772,0.313-1.398,0.699-1.398
								C423.224,320.925,423.537,321.551,423.537,322.323z"/>
						</g>
					</g>
					<g>
						<path style="fill:#68C5C3;" d="M477.246,458.168h-92.973c-1.737,0-3.145-1.408-3.145-3.145v-65.011
							c0-1.737,1.408-3.145,3.145-3.145h92.973c1.737,0,3.145,1.408,3.145,3.145v65.011
							C480.391,456.76,478.983,458.168,477.246,458.168z"/>
						
							<path style="fill:none;stroke:#1D1D1B;stroke-width:0.5;stroke-linecap:round;stroke-linejoin:round;stroke-miterlimit:10;" d="
							M477.246,386.867c0,0,1.514,1.049,1.514,4.427c0,3.379-0.757,63.965-0.757,63.965"/>
						
							<ellipse transform="matrix(0.9225 -0.3859 0.3859 0.9225 -129.7123 198.8457)" style="fill:#FBFAFD;" cx="430.439" cy="422.517" rx="13.777" ry="13.777"/>
					</g>
					<path style="fill:#FFBDCD;" d="M396.974,217.469c0,0-9.204,28.078-8.738,28.893c0.466,0.816,4.36,1.748,4.36,1.748v5.825
						l5.775-0.816l-3.379,4.078c0,0,3.262,10.485,5.01,11.184c1.747,0.699,11.883-3.495,11.883-3.495s9.437,13.747,10.019,14.913
						c0.583,1.165-1.048,10.485-0.932,11.301c0.117,0.815,1.981,6.874,1.981,6.874s4.893-18.524,5.942-19.223
						c1.049-0.699,20.971-12.582,20.971-12.582l-8.505-14.796l-7.922,1.748l-1.398-9.786c0,0,2.68-8.738-2.214-10.718
						c-4.893-1.981-7.573,2.913-7.689,4.311c-0.117,1.398-0.583,3.379-0.583,3.379l-3.262-0.699c0,0,2.214-8.505-3.728-14.563
						l4.477-7.573c0,0-14.613,1.748-18.108,0C400.935,217.469,399.187,219.1,396.974,217.469z"/>
					<path style="stroke:#1D1D1B;stroke-width:0.5;stroke-linecap:round;stroke-linejoin:round;stroke-miterlimit:10;" d="
						M431.956,243.135c0,0-1.551,6.281-8.114,5.242C423.843,248.377,431.396,251.686,431.956,243.135z"/>
					<polygon style="stroke:#1D1D1B;stroke-width:0.5;stroke-linecap:round;stroke-linejoin:round;stroke-miterlimit:10;" points="
						411.886,264.886 416.896,260.925 413.913,267.847 					"/>
					<g>
						<path style="fill:#FFBDCD;" d="M452.43,348.304l29.709-1.631c0,0-0.35,24.349-3.262,31.456
							c-2.913,7.107-47.534,66.874-47.534,66.874s-3.379,15.728-4.544,18.408c-1.165,2.68-3.845,1.864-4.893,1.748
							c0,0-3.612,1.928-6.175,0.207c0,0-5.01,3.405-8.039-0.906c0,0-5.709,1.048-6.408-1.981c-0.699-3.029,2.68-12.233,2.68-12.233
							s-2.913,3.728-5.942,3.845c-3.029,0.116-2.796-2.563,0-5.243s8.155-10.719,9.786-11.301c1.631-0.582,10.136-2.33,10.136-2.33
							l35.767-70.369L452.43,348.304z"/>
						
							<path style="fill:none;stroke:#1D1D1B;stroke-width:0.5;stroke-linecap:round;stroke-linejoin:round;stroke-miterlimit:10;" d="
							M403.964,450.245c0,0,1.864-4.078,1.981-4.544"/>
						<polygon style="stroke:#1D1D1B;stroke-width:0.5;stroke-linecap:round;stroke-linejoin:round;stroke-miterlimit:10;" points="
							452.592,350.401 482.138,350.401 482.138,346.673 452.43,348.304 						"/>
					</g>
					<g>
						<path style="fill:#FFBDCD;" d="M407.422,376.497c0,0-3.459,5.826-8.352,6.525c-4.893,0.699-10.136-1.981-16.893-15.495
							c-6.757-13.514-20.272-42.291-20.272-42.291s-2.214,1.98-11.068-4.194c-8.854-6.175-17.592-10.835-18.291-12.466
							c-0.699-1.631,0.466-3.379,4.194-2.097c0,0-5.592-3.612-6.175-6.058c-0.582-2.447,2.33-3.379,4.194-2.447
							c0,0-5.243-2.913-4.777-5.243c0.466-2.33,4.544-0.699,7.107,0c0,0-3.845-2.447-2.563-4.718
							c1.281-2.272,11.534,3.437,14.796,4.602c3.262,1.165,15.961,7.223,15.961,7.223s-2.563-5.359-1.981-10.136
							c0.583-4.777,4.128-4.427,5.385,0.582c1.256,5.01,5.101,12,5.334,13.514c0.233,1.515,0.583,10.718,0.583,10.718l23.888,34.349
							l8.617,1.535L407.422,376.497z"/>
						
							<line style="fill:none;stroke:#1D1D1B;stroke-width:0.5;stroke-linecap:round;stroke-linejoin:round;stroke-miterlimit:10;" x1="398.492" y1="348.866" x2="403.614" y2="357.275"/>
						
							<line style="fill:none;stroke:#1D1D1B;stroke-width:0.5;stroke-linecap:round;stroke-linejoin:round;stroke-miterlimit:10;" x1="337.09" y1="292.731" x2="349.906" y2="298.906"/>
						
							<line style="fill:none;stroke:#1D1D1B;stroke-width:0.5;stroke-linecap:round;stroke-linejoin:round;stroke-miterlimit:10;" x1="334.76" y1="297.974" x2="347.343" y2="304.381"/>
						
							<polyline style="fill:none;stroke:#1D1D1B;stroke-width:0.5;stroke-linecap:round;stroke-linejoin:round;stroke-miterlimit:10;" points="
							336.741,306.478 346.061,310.323 345.478,312.071 						"/>
						
							<path style="fill:none;stroke:#1D1D1B;stroke-width:0.5;stroke-linecap:round;stroke-linejoin:round;stroke-miterlimit:10;" d="
							M362.721,317.314c0,0-5.369-7.985,1.398-14.447"/>
					</g>
					<path style="stroke:#1D1D1B;stroke-width:0.5;stroke-linecap:round;stroke-linejoin:round;stroke-miterlimit:10;" d="
						M423.954,239.24c0.14-1.528,0.375-3.237,1.591-4.174c0.422-0.325,0.929-0.524,1.448-0.643c0.989-0.226,2.058-0.164,2.974,0.271
						c0.916,0.435,1.66,1.263,1.9,2.248"/>
					<g>
						<path style="fill:#1D1D1B;" d="M399.012,238.162c0,0.595-0.483,1.078-1.078,1.078c-0.595,0-1.078-0.483-1.078-1.078
							s0.483-1.078,1.078-1.078C398.53,237.084,399.012,237.567,399.012,238.162z"/>
						<g>
							<path style="fill:#1D1D1B;" d="M401.277,233.193c-0.241,0.658-1.697,0.356-3.342,0.356c-1.645,0-3.102,0.303-3.342-0.356
								c-0.241-0.658,1.204-2.279,3.342-2.279S401.517,232.535,401.277,233.193z"/>
						</g>
					</g>
					<g>
						
							<ellipse style="fill:none;stroke:#1D1D1B;stroke-width:0.5;stroke-linecap:round;stroke-linejoin:round;stroke-miterlimit:10;" cx="396.263" cy="236.401" rx="4.415" ry="8.447"/>
						
							<line style="fill:none;stroke:#1D1D1B;stroke-width:0.5;stroke-linecap:round;stroke-linejoin:round;stroke-miterlimit:10;" x1="400.678" y1="235.644" x2="422.431" y2="235.644"/>
					</g>
				</g>
				<g>
					
						<path style="fill:none;stroke:#1D1D1B;stroke-width:0.5;stroke-linecap:round;stroke-linejoin:round;stroke-miterlimit:10;" d="
						M401.028,217.031c-0.56-0.56-1.025-1.216-1.368-1.93c-0.234-0.487-0.412-1.001-0.511-1.532
						c-0.186-0.991-0.091-2.033,0.27-2.974c-1.46-1.918-1.919-4.8-1.033-7.042c0.326-0.826,0.866-1.548,1.399-2.259
						c0.632-0.842,1.287-1.706,2.191-2.248"/>
					
						<path style="fill:none;stroke:#1D1D1B;stroke-width:0.5;stroke-linecap:round;stroke-linejoin:round;stroke-miterlimit:10;" d="
						M410.436,210.342c-0.535-1.697-0.379-3.602,0.427-5.189c0.806-1.587,2.251-2.837,3.937-3.407"/>
					
						<path style="fill:none;stroke:#1D1D1B;stroke-width:0.5;stroke-linecap:round;stroke-linejoin:round;stroke-miterlimit:10;" d="
						M419.421,212.011c-0.355-1.548,0.523-3.169,1.77-4.152c1.247-0.983,2.809-1.46,4.33-1.915"/>
					
						<path style="fill:none;stroke:#1D1D1B;stroke-width:0.5;stroke-linecap:round;stroke-linejoin:round;stroke-miterlimit:10;" d="
						M433.526,219.312c1.383-1.394,3.202-2.377,5.148-2.641c1.946-0.264,4.006,0.22,5.555,1.427"/>
				</g>
			</g>
		</g>
		<g>
			<g>
				
					<rect x="286.245" y="194.604" transform="matrix(0.9708 0.2398 -0.2398 0.9708 57.7161 -66.967)" style="fill:#68C5C3;" width="35.717" height="18.271"/>
				<g>
					<path style="fill:#FFBDCD;" d="M296.098,123.224c7.17-29.034,24.751-49.665,39.268-46.08
						c-29.034-7.17-58.384,10.554-65.554,39.589c-7.17,29.034,10.554,58.384,39.589,65.554
						C294.884,178.701,288.928,152.258,296.098,123.224z"/>
					<path style="fill:#FBFAFD;" d="M335.366,77.144c14.517,3.585,20.473,30.028,13.303,59.063
						c-7.17,29.034-24.751,49.665-39.268,46.08c29.034,7.17,58.384-10.554,65.554-39.589
						C382.125,113.663,364.401,84.314,335.366,77.144z"/>
					<path style="fill:#FFBDCD;" d="M348.669,136.206c7.17-29.034,1.214-55.478-13.303-59.063l-25.965,105.143
						C323.918,185.872,341.499,165.241,348.669,136.206z"/>
					<path style="fill:#FBFAFD;" d="M296.098,123.224c-7.17,29.034-1.214,55.478,13.303,59.063l25.965-105.143
						C320.849,73.559,303.268,94.189,296.098,123.224z"/>
				</g>
				
					<polyline style="fill:none;stroke:#1D1D1B;stroke-width:0.5;stroke-linecap:round;stroke-linejoin:round;stroke-miterlimit:10;" points="
					322.363,204.289 287.687,195.725 277.203,159.551 348.488,177.155 322.363,204.289 				"/>
				
					<line style="fill:none;stroke:#1D1D1B;stroke-width:0.5;stroke-linecap:round;stroke-linejoin:round;stroke-miterlimit:10;" x1="305.025" y1="200.007" x2="312.846" y2="168.353"/>
			</g>
			<g>
				<path style="fill:#68C5C3;" d="M238.384,186.706v-21.262h-8.098c-0.87-3.131-2.098-6.107-3.665-8.876l5.718-5.718
					l-15.034-15.034l-5.718,5.718c-2.768-1.567-5.745-2.795-8.876-3.665v-8.098H181.45v8.098c-3.131,0.87-6.107,2.098-8.876,3.665
					l-5.718-5.718l-15.034,15.034l5.718,5.718c-1.567,2.768-2.795,5.744-3.665,8.876h-8.098v21.262h8.098
					c0.87,3.131,2.098,6.107,3.665,8.876l-5.718,5.718l15.034,15.034l5.718-5.718c2.769,1.567,5.745,2.795,8.876,3.665v8.098h21.262
					v-8.098c3.131-0.87,6.107-2.098,8.876-3.665l5.718,5.718l15.034-15.034l-5.718-5.718c1.567-2.768,2.795-5.744,3.665-8.876
					H238.384z M192.081,206.975c-17.066,0-30.9-13.834-30.9-30.9s13.834-30.9,30.9-30.9s30.9,13.834,30.9,30.9
					S209.146,206.975,192.081,206.975z"/>
				<circle style="fill:#68C5C3;" cx="192.081" cy="176.075" r="19.327"/>
			</g>
			<g>
				<path style="fill:#68C5C3;" d="M375.068,251.284v-10.996h-4.188c-0.45-1.619-1.085-3.158-1.895-4.59l2.957-2.957l-7.775-7.775
					l-2.957,2.957c-1.432-0.81-2.971-1.445-4.59-1.895v-4.188h-10.996v4.188c-1.619,0.45-3.158,1.085-4.59,1.895l-2.957-2.957
					l-7.775,7.775l2.957,2.957c-0.81,1.432-1.445,2.971-1.895,4.59h-4.188v10.996h4.188c0.45,1.619,1.085,3.158,1.895,4.59
					l-2.957,2.957l7.775,7.775l2.957-2.957c1.432,0.811,2.971,1.446,4.59,1.895v4.188h10.996v-4.188
					c1.619-0.45,3.158-1.085,4.59-1.895l2.957,2.957l7.775-7.775l-2.957-2.957c0.81-1.432,1.445-2.971,1.895-4.59H375.068z
					 M351.122,261.766c-8.826,0-15.98-7.154-15.98-15.98s7.155-15.98,15.98-15.98s15.98,7.154,15.98,15.98
					S359.947,261.766,351.122,261.766z"/>
				
					<ellipse transform="matrix(0.1557 -0.9878 0.9878 0.1557 53.6611 554.3543)" style="fill:#68C5C3;" cx="351.122" cy="245.786" rx="9.995" ry="9.995"/>
			</g>
			<g>
				<g>
					
						<ellipse transform="matrix(0.1623 -0.9867 0.9867 0.1623 26.733 156.6412)" style="fill:#68C5C3;" cx="105.618" cy="62.577" rx="41.201" ry="41.201"/>
					
						<ellipse style="fill:none;stroke:#1D1D1B;stroke-width:0.5;stroke-linecap:round;stroke-linejoin:round;stroke-miterlimit:10;" cx="105.618" cy="62.577" rx="17.44" ry="41.201"/>
					
						<line style="fill:none;stroke:#1D1D1B;stroke-width:0.5;stroke-linecap:round;stroke-linejoin:round;stroke-miterlimit:10;" x1="105.618" y1="21.375" x2="105.618" y2="103.778"/>
					
						<line style="fill:none;stroke:#1D1D1B;stroke-width:0.5;stroke-linecap:round;stroke-linejoin:round;stroke-miterlimit:10;" x1="146.82" y1="62.577" x2="64.417" y2="62.577"/>
					
						<line style="fill:none;stroke:#1D1D1B;stroke-width:0.5;stroke-linecap:round;stroke-linejoin:round;stroke-miterlimit:10;" x1="142.585" y1="44.378" x2="68.652" y2="44.378"/>
					
						<line style="fill:none;stroke:#1D1D1B;stroke-width:0.5;stroke-linecap:round;stroke-linejoin:round;stroke-miterlimit:10;" x1="142.585" y1="81.464" x2="68.652" y2="81.464"/>
				</g>
				<path style="fill:#1D1D1B;" d="M143.192,109.169l-3.288,28.246c-0.348,2.985-4.414,3.6-5.628,0.851l-26.825-60.717
					c-1.154-2.611,1.51-5.275,4.121-4.121l60.717,26.825c2.749,1.214,2.134,5.281-0.851,5.628L143.192,109.169z"/>
			</g>
			<g>
				<polygon style="fill:#B3D8F9;" points="261.361,24.911 191.722,50.776 208.448,95.812 234.261,86.224 247.969,92.507 
					254.252,78.8 278.087,69.947 				"/>
				<g>
					<path style="fill:#1D1D1B;" d="M225.788,65.935c0.704,1.896-0.262,4.003-2.158,4.708c-1.896,0.704-4.003-0.262-4.708-2.158
						c-0.704-1.896,0.262-4.003,2.158-4.707C222.977,63.073,225.084,64.039,225.788,65.935z"/>
					<path style="fill:#1D1D1B;" d="M239.051,61.009c0.704,1.896-0.262,4.003-2.158,4.708c-1.896,0.704-4.003-0.262-4.707-2.158
						c-0.704-1.896,0.262-4.003,2.158-4.708S238.347,59.113,239.051,61.009z"/>
					<path style="fill:#1D1D1B;" d="M252.314,56.083c0.704,1.896-0.262,4.003-2.158,4.708c-1.896,0.704-4.003-0.262-4.708-2.158
						c-0.704-1.896,0.262-4.003,2.158-4.708C249.502,53.221,251.61,54.187,252.314,56.083z"/>
				</g>
			</g>
			<g>
				<polygon style="fill:#FFBDCD;" points="201.34,262.838 157.366,224.166 132.357,252.605 148.657,266.939 149.418,278.801 
					161.28,278.04 176.331,291.276 				"/>
				<g>
					<path style="fill:#1D1D1B;" d="M159.574,253.476c-1.053,1.197-2.877,1.314-4.074,0.261c-1.197-1.053-1.314-2.877-0.261-4.074
						c1.053-1.197,2.877-1.314,4.074-0.261C160.509,250.455,160.626,252.279,159.574,253.476z"/>
					<path style="fill:#1D1D1B;" d="M167.949,260.841c-1.053,1.197-2.877,1.314-4.074,0.261c-1.197-1.053-1.314-2.877-0.261-4.074
						c1.053-1.197,2.877-1.314,4.074-0.261C168.884,257.82,169.001,259.644,167.949,260.841z"/>
					<path style="fill:#1D1D1B;" d="M176.324,268.207c-1.053,1.197-2.877,1.314-4.074,0.261c-1.197-1.053-1.314-2.877-0.261-4.074
						c1.053-1.197,2.877-1.314,4.074-0.261C177.259,265.185,177.376,267.009,176.324,268.207z"/>
				</g>
			</g>
			<g>
				<circle style="fill:#FBFAFD;" cx="427.995" cy="80.7" r="52.927"/>
				<circle style="fill:#FFC577;" cx="427.995" cy="80.7" r="26.346"/>
				<path style="fill:#1D1D1B;" d="M433.296,75.551c-2.538-2.538-6.461-2.839-9.333-0.912l-16.592-16.592l3.997-24.316
					l-23.086-23.086l-4.284,26.059l-0.177-0.177l-26.059,4.283l23.087,23.086l24.316-3.997l16.769,16.769
					c-1.926,2.872-1.625,6.795,0.913,9.333c2.886,2.886,7.565,2.886,10.45,0C436.182,83.116,436.182,78.437,433.296,75.551z"/>
			</g>
		</g>
	</g>
</g>
</svg>
